<?xml version="1.0" encoding="utf-8"?>
<!-- Generator: Adobe Illustrator 19.1.0, SVG Export Plug-In . SVG Version: 6.00 Build 0)  -->
<svg version="1.1" id="Layer_1" xmlns="http://www.w3.org/2000/svg" xmlns:xlink="http://www.w3.org/1999/xlink" x="0px" y="0px"
	 viewBox="0 0 360 360" style="enable-background:new 0 0 360 360;" xml:space="preserve">
<style type="text/css">
	.st0{fill:#707070;}
</style>
<path class="st0" d="M178.6,185.7c-0.4,0-0.9,0-1.3-0.1c-2.6-0.3-5-1.7-6.6-3.8c-3.3-4.3-2.5-10.6,1.8-13.9
	c4.3-3.3,10.6-2.5,13.9,1.8l0,0c3.3,4.3,2.5,10.6-1.8,13.9C182.9,185,180.8,185.7,178.6,185.7z M178.6,168.9c-1.5,0-3,0.5-4.2,1.4
	c-3,2.3-3.6,6.7-1.2,9.7c2.3,3,6.7,3.6,9.7,1.3c3-2.3,3.6-6.7,1.2-9.7l0,0C182.7,169.8,180.7,168.9,178.6,168.9z"/>
<rect x="181.4" y="186.2" transform="matrix(0.6108 0.7918 -0.7918 0.6108 221.1477 -75.5109)" class="st0" width="12" height="2"/>
</svg>
